<svg width="40" height="41" viewBox="0 0 40 41" fill="none" xmlns="http://www.w3.org/2000/svg">
<path d="M33.2499 19.2227C33.2499 26.5404 27.3177 32.4727 19.9999 32.4727C12.6821 32.4727 6.74988 26.5404 6.74988 19.2227C6.74988 11.9049 12.6821 5.97266 19.9999 5.97266C27.3177 5.97266 33.2499 11.9049 33.2499 19.2227Z" stroke="#1C1C1C" stroke-width="1.5"/>
<path d="M19.7639 21.1672C19.842 20.9439 20.1577 20.9439 20.2358 21.1672L25.8263 37.1401C25.8832 37.3026 25.7625 37.4727 25.5903 37.4727H14.4093C14.2371 37.4727 14.1164 37.3026 14.1733 37.1401L19.7639 21.1672Z" fill="white" stroke="#1C1C1C" stroke-width="1.5"/>
<path d="M23.2499 18.2227C23.2499 20.0176 21.7948 21.4727 19.9999 21.4727C18.205 21.4727 16.7499 20.0176 16.7499 18.2227C16.7499 16.4277 18.205 14.9727 19.9999 14.9727C21.7948 14.9727 23.2499 16.4277 23.2499 18.2227Z" fill="white" stroke="#1C1C1C" stroke-width="1.5"/>
<rect x="3.74988" y="22.9727" width="8.5" height="6.5" rx="2.25" fill="white" stroke="#1C1C1C" stroke-width="1.5"/>
<rect x="2.74988" y="9.97266" width="8.5" height="6.5" rx="2.25" fill="white" stroke="#1C1C1C" stroke-width="1.5"/>
<rect x="15.7499" y="2.97266" width="8.5" height="6.5" rx="2.25" fill="white" stroke="#1C1C1C" stroke-width="1.5"/>
<rect x="27.7499" y="22.9727" width="8.5" height="6.5" rx="2.25" fill="white" stroke="#1C1C1C" stroke-width="1.5"/>
<rect x="28.7499" y="9.97266" width="8.5" height="6.5" rx="2.25" fill="white" stroke="#1C1C1C" stroke-width="1.5"/>
</svg>
