<svg width="24" height="24" viewBox="0 0 24 24" fill="none" xmlns="http://www.w3.org/2000/svg">
<path d="M4.1 10.75H20.9C21.6456 10.75 22.25 11.3544 22.25 12.1V16.25H2.75V12.1C2.75 11.3544 3.35442 10.75 4.1 10.75Z" stroke="#1C1C1C" stroke-width="1.5"/>
<line x1="2.75" y1="16.3271" x2="2.75" y2="19.1271" stroke="#1C1C1C" stroke-width="1.5"/>
<line x1="22.25" y1="16.3271" x2="22.25" y2="19.1271" stroke="#1C1C1C" stroke-width="1.5"/>
<mask id="path-4-inside-1_497_9438" fill="white">
<path d="M4.1001 5.5C4.1001 4.94772 4.54781 4.5 5.1001 4.5H19.9001C20.4524 4.5 20.9001 4.94772 20.9001 5.5V11.5H4.1001V5.5Z"/>
</mask>
<path d="M4.1001 5.5C4.1001 4.94772 4.54781 4.5 5.1001 4.5H19.9001C20.4524 4.5 20.9001 4.94772 20.9001 5.5V11.5H4.1001V5.5Z" stroke="#1C1C1C" stroke-width="3" mask="url(#path-4-inside-1_497_9438)"/>
<mask id="path-5-inside-2_497_9438" fill="white">
<path d="M8.30005 8.62656C8.30005 7.85336 8.92685 7.22656 9.70005 7.22656H15.3C16.0732 7.22656 16.7 7.85336 16.7 8.62656V11.2266H8.30005V8.62656Z"/>
</mask>
<path d="M6.80005 8.62656C6.80005 7.02494 8.09842 5.72656 9.70005 5.72656H15.3C16.9017 5.72656 18.2 7.02494 18.2 8.62656L15.2 8.72656H9.80005L6.80005 8.62656ZM18.2 12.2266H6.80005L9.80005 10.2266H15.2L18.2 12.2266ZM6.80005 12.2266V8.62656C6.80005 7.02494 8.09842 5.72656 9.70005 5.72656L9.80005 8.72656V10.2266L6.80005 12.2266ZM15.3 5.72656C16.9017 5.72656 18.2 7.02494 18.2 8.62656V12.2266L15.2 10.2266V8.72656L15.3 5.72656Z" fill="#1C1C1C" mask="url(#path-5-inside-2_497_9438)"/>
</svg>
