<svg width="40" height="41" viewBox="0 0 40 41" fill="none" xmlns="http://www.w3.org/2000/svg">
<path d="M8 20.9727H32C33.2426 20.9727 34.25 21.98 34.25 23.2227V29.4727H5.75V23.2227C5.75 21.98 6.75736 20.9727 8 20.9727Z" stroke="#1C1C1C" stroke-width="1.5"/>
<line x1="5.75" y1="29.2227" x2="5.75" y2="33.2227" stroke="#1C1C1C" stroke-width="1.5"/>
<line x1="34.25" y1="29.2227" x2="34.25" y2="33.2227" stroke="#1C1C1C" stroke-width="1.5"/>
<mask id="path-4-inside-1_497_9349" fill="white">
<path d="M8 13.7227C8 13.1704 8.44772 12.7227 9 12.7227H31C31.5523 12.7227 32 13.1704 32 13.7227V21.7227H8V13.7227Z"/>
</mask>
<path d="M8 13.7227C8 13.1704 8.44772 12.7227 9 12.7227H31C31.5523 12.7227 32 13.1704 32 13.7227V21.7227H8V13.7227Z" stroke="#1C1C1C" stroke-width="3" mask="url(#path-4-inside-1_497_9349)"/>
<mask id="path-5-inside-2_497_9349" fill="white">
<path d="M14 18.2227C14 17.1181 14.8954 16.2227 16 16.2227H24C25.1046 16.2227 26 17.1181 26 18.2227V21.2227H14V18.2227Z"/>
</mask>
<path d="M12.5 18.2227C12.5 16.2897 14.067 14.7227 16 14.7227H24C25.933 14.7227 27.5 16.2897 27.5 18.2227H24.5C24.5 17.9465 24.2761 17.7227 24 17.7227H16C15.7239 17.7227 15.5 17.9465 15.5 18.2227H12.5ZM27.5 22.2227H12.5L15.5 20.2227H24.5L27.5 22.2227ZM12.5 22.2227V18.2227C12.5 16.2897 14.067 14.7227 16 14.7227V17.7227C15.7239 17.7227 15.5 17.9465 15.5 18.2227V20.2227L12.5 22.2227ZM24 14.7227C25.933 14.7227 27.5 16.2897 27.5 18.2227V22.2227L24.5 20.2227V18.2227C24.5 17.9465 24.2761 17.7227 24 17.7227V14.7227Z" fill="#1C1C1C" mask="url(#path-5-inside-2_497_9349)"/>
</svg>
