<svg width="104" height="49" viewBox="0 0 104 49" fill="none" xmlns="http://www.w3.org/2000/svg">
<path d="M25.6761 30.4027C24.7041 30.4027 23.7621 30.2647 22.8501 29.9887C21.9501 29.7127 21.2361 29.3467 20.7081 28.8907L21.5181 27.0727C22.0341 27.4807 22.6641 27.8167 23.4081 28.0807C24.1641 28.3327 24.9201 28.4587 25.6761 28.4587C26.6121 28.4587 27.3081 28.3087 27.7641 28.0087C28.2321 27.7087 28.4661 27.3127 28.4661 26.8207C28.4661 26.4607 28.3341 26.1667 28.0701 25.9387C27.8181 25.6987 27.4941 25.5127 27.0981 25.3807C26.7021 25.2487 26.1621 25.0987 25.4781 24.9307C24.5181 24.7027 23.7381 24.4747 23.1381 24.2467C22.5501 24.0187 22.0401 23.6647 21.6081 23.1847C21.1881 22.6927 20.9781 22.0327 20.9781 21.2047C20.9781 20.5087 21.1641 19.8787 21.5361 19.3147C21.9201 18.7387 22.4901 18.2827 23.2461 17.9467C24.0141 17.6107 24.9501 17.4427 26.0541 17.4427C26.8221 17.4427 27.5781 17.5387 28.3221 17.7307C29.0661 17.9227 29.7081 18.1987 30.2481 18.5587L29.5101 20.3767C28.9581 20.0527 28.3821 19.8067 27.7821 19.6387C27.1821 19.4707 26.6001 19.3867 26.0361 19.3867C25.1121 19.3867 24.4221 19.5427 23.9661 19.8547C23.5221 20.1667 23.3001 20.5807 23.3001 21.0967C23.3001 21.4567 23.4261 21.7507 23.6781 21.9787C23.9421 22.2067 24.2721 22.3867 24.6681 22.5187C25.0641 22.6507 25.6041 22.8007 26.2881 22.9687C27.2241 23.1847 27.9921 23.4127 28.5921 23.6527C29.1921 23.8807 29.7021 24.2347 30.1221 24.7147C30.5541 25.1947 30.7701 25.8427 30.7701 26.6587C30.7701 27.3547 30.5781 27.9847 30.1941 28.5487C29.8221 29.1127 29.2521 29.5627 28.4841 29.8987C27.7161 30.2347 26.7801 30.4027 25.6761 30.4027ZM32.8744 20.6107H35.1244V30.2227H32.8744V20.6107ZM34.0084 19.0267C33.6004 19.0267 33.2584 18.9007 32.9824 18.6487C32.7064 18.3847 32.5684 18.0607 32.5684 17.6767C32.5684 17.2927 32.7064 16.9747 32.9824 16.7227C33.2584 16.4587 33.6004 16.3267 34.0084 16.3267C34.4164 16.3267 34.7584 16.4527 35.0344 16.7047C35.3104 16.9447 35.4484 17.2507 35.4484 17.6227C35.4484 18.0187 35.3104 18.3547 35.0344 18.6307C34.7704 18.8947 34.4284 19.0267 34.0084 19.0267ZM47.6176 20.6107V28.7647C47.6176 32.1487 45.8896 33.8407 42.4336 33.8407C41.5096 33.8407 40.6336 33.7207 39.8056 33.4807C38.9776 33.2527 38.2936 32.9167 37.7536 32.4727L38.7616 30.7807C39.1816 31.1287 39.7096 31.4047 40.3456 31.6087C40.9936 31.8247 41.6476 31.9327 42.3076 31.9327C43.3636 31.9327 44.1376 31.6927 44.6296 31.2127C45.1216 30.7327 45.3676 30.0007 45.3676 29.0167V28.5127C44.9836 28.9327 44.5156 29.2507 43.9636 29.4667C43.4116 29.6827 42.8056 29.7907 42.1456 29.7907C41.2336 29.7907 40.4056 29.5987 39.6616 29.2147C38.9296 28.8187 38.3476 28.2667 37.9156 27.5587C37.4956 26.8507 37.2856 26.0407 37.2856 25.1287C37.2856 24.2167 37.4956 23.4127 37.9156 22.7167C38.3476 22.0087 38.9296 21.4627 39.6616 21.0787C40.4056 20.6947 41.2336 20.5027 42.1456 20.5027C42.8416 20.5027 43.4716 20.6167 44.0356 20.8447C44.6116 21.0727 45.0916 21.4207 45.4756 21.8887V20.6107H47.6176ZM42.4876 27.8827C43.3396 27.8827 44.0356 27.6307 44.5756 27.1267C45.1276 26.6107 45.4036 25.9447 45.4036 25.1287C45.4036 24.3247 45.1276 23.6707 44.5756 23.1667C44.0356 22.6627 43.3396 22.4107 42.4876 22.4107C41.6236 22.4107 40.9156 22.6627 40.3636 23.1667C39.8236 23.6707 39.5536 24.3247 39.5536 25.1287C39.5536 25.9447 39.8236 26.6107 40.3636 27.1267C40.9156 27.6307 41.6236 27.8827 42.4876 27.8827ZM56.0296 20.5027C57.2416 20.5027 58.2136 20.8567 58.9456 21.5647C59.6776 22.2727 60.0436 23.3227 60.0436 24.7147V30.2227H57.7936V25.0027C57.7936 24.1627 57.5956 23.5327 57.1996 23.1127C56.8036 22.6807 56.2396 22.4647 55.5076 22.4647C54.6796 22.4647 54.0256 22.7167 53.5456 23.2207C53.0656 23.7127 52.8256 24.4267 52.8256 25.3627V30.2227H50.5756V20.6107H52.7176V21.8527C53.0896 21.4087 53.5576 21.0727 54.1216 20.8447C54.6856 20.6167 55.3216 20.5027 56.0296 20.5027ZM67.8725 20.6107H70.1225V30.2227H67.8725V20.6107ZM69.0065 19.0267C68.5985 19.0267 68.2565 18.9007 67.9805 18.6487C67.7045 18.3847 67.5665 18.0607 67.5665 17.6767C67.5665 17.2927 67.7045 16.9747 67.9805 16.7227C68.2565 16.4587 68.5985 16.3267 69.0065 16.3267C69.4145 16.3267 69.7565 16.4527 70.0325 16.7047C70.3085 16.9447 70.4465 17.2507 70.4465 17.6227C70.4465 18.0187 70.3085 18.3547 70.0325 18.6307C69.7685 18.8947 69.4265 19.0267 69.0065 19.0267ZM78.5296 20.5027C79.7416 20.5027 80.7136 20.8567 81.4456 21.5647C82.1776 22.2727 82.5436 23.3227 82.5436 24.7147V30.2227H80.2936V25.0027C80.2936 24.1627 80.0956 23.5327 79.6996 23.1127C79.3036 22.6807 78.7396 22.4647 78.0076 22.4647C77.1796 22.4647 76.5256 22.7167 76.0456 23.2207C75.5656 23.7127 75.3256 24.4267 75.3256 25.3627V30.2227H73.0756V20.6107H75.2176V21.8527C75.5896 21.4087 76.0576 21.0727 76.6216 20.8447C77.1856 20.6167 77.8216 20.5027 78.5296 20.5027Z" fill="#1A6165"/>
<rect x="1" y="1.22266" width="102" height="46" rx="11" stroke="#1A6165" stroke-width="2"/>
</svg>
