<svg width="24" height="25" viewBox="0 0 24 25" fill="none" xmlns="http://www.w3.org/2000/svg">
<path d="M1.49988 13.0217C1.49988 12.3037 2.08191 11.7217 2.79988 11.7217H21.1999C21.9178 11.7217 22.4999 12.3037 22.4999 13.0217V16.7217H1.49988V13.0217Z" stroke="#1C1C1C"/>
<line x1="1.49988" y1="16.623" x2="1.49988" y2="19.023" stroke="#1C1C1C"/>
<line x1="22.4999" y1="16.2227" x2="22.4999" y2="19.2227" stroke="#1C1C1C"/>
<mask id="path-4-inside-1_497_9271" fill="white">
<path d="M2.99988 6.82266C2.99988 6.49129 3.26851 6.22266 3.59988 6.22266H20.3999C20.7312 6.22266 20.9999 6.49129 20.9999 6.82266V12.2227H2.99988V6.82266Z"/>
</mask>
<path d="M2.99988 6.82266C2.99988 6.49129 3.26851 6.22266 3.59988 6.22266H20.3999C20.7312 6.22266 20.9999 6.49129 20.9999 6.82266V12.2227H2.99988V6.82266Z" stroke="#1C1C1C" stroke-width="2" mask="url(#path-4-inside-1_497_9271)"/>
<mask id="path-5-inside-2_497_9271" fill="white">
<path d="M5.99988 10.4227C5.99988 9.75991 6.53714 9.22266 7.19988 9.22266H16.7999C17.4626 9.22266 17.9999 9.75991 17.9999 10.4227V12.2227H5.99988V10.4227Z"/>
</mask>
<path d="M4.99988 10.4227C4.99988 9.20763 5.98485 8.22266 7.19988 8.22266H16.7999C18.0149 8.22266 18.9999 9.20763 18.9999 10.4227H16.9999C16.9999 10.3122 16.9103 10.2227 16.7999 10.2227H7.19988C7.08942 10.2227 6.99988 10.3122 6.99988 10.4227H4.99988ZM18.9999 12.8227H4.99988L6.99988 11.6227H16.9999L18.9999 12.8227ZM4.99988 12.8227V10.4227C4.99988 9.20763 5.98485 8.22266 7.19988 8.22266V10.2227C7.08942 10.2227 6.99988 10.3122 6.99988 10.4227V11.6227L4.99988 12.8227ZM16.7999 8.22266C18.0149 8.22266 18.9999 9.20763 18.9999 10.4227V12.8227L16.9999 11.6227V10.4227C16.9999 10.3122 16.9103 10.2227 16.7999 10.2227V8.22266Z" fill="#1C1C1C" mask="url(#path-5-inside-2_497_9271)"/>
</svg>
