<svg width="24" height="25" viewBox="0 0 24 25" fill="none" xmlns="http://www.w3.org/2000/svg">
<path d="M19.4998 10.5863C19.4998 16.3136 11.9998 21.2227 11.9998 21.2227C11.9998 21.2227 4.49988 16.3136 4.49988 10.5863C4.49988 8.63333 5.29005 6.76036 6.69656 5.37942C8.10308 3.99847 10.0107 3.22266 11.9998 3.22266C13.9889 3.22266 15.8966 3.99847 17.3031 5.37942C18.7096 6.76036 19.4998 8.63333 19.4998 10.5863Z" stroke="#1C1C1C" stroke-width="1.5" stroke-linecap="round" stroke-linejoin="round"/>
<path d="M11.9995 13.7227C13.2421 13.7227 14.2495 12.7153 14.2495 11.4727C14.2495 10.23 13.2421 9.22266 11.9995 9.22266C10.7569 9.22266 9.74951 10.23 9.74951 11.4727C9.74951 12.7153 10.7569 13.7227 11.9995 13.7227Z" stroke="#1C1C1C" stroke-width="1.5" stroke-linecap="round" stroke-linejoin="round"/>
</svg>
