<svg width="40" height="41" viewBox="0 0 40 41" fill="none" xmlns="http://www.w3.org/2000/svg">
<g clip-path="url(#clip0_497_9356)">
<path d="M7.93581 16.7156L8.15992 16.9717H8.50024H13.0002H22.0002H36.5002C38.019 16.9717 39.2502 18.2029 39.2502 19.7217C39.2502 21.2405 38.019 22.4717 36.5002 22.4717H31.0002H26.5002H26.2037L25.9873 22.6745L18.3273 29.8558L15.5436 28.8119L18.1711 23.5571L18.7138 22.4717H17.5002H13.0002H8.79587L2.26868 16.3796C2.16527 16.2831 2.16246 16.1201 2.26248 16.0201L4.77476 13.5078C4.87702 13.4056 5.04445 13.4111 5.13968 13.52L7.93581 16.7156Z" stroke="#1C1C1C" stroke-width="1.5"/>
<path d="M18.4638 16.9727L15.5752 11.1955L17.7662 10.5695L23.7691 16.9727H18.4638Z" stroke="#1C1C1C" stroke-width="1.5"/>
</g>
<defs>
<clipPath id="clip0_497_9356">
<rect width="40" height="40" fill="white" transform="translate(0 0.222656)"/>
</clipPath>
</defs>
</svg>
