<svg width="52" height="41" viewBox="0 0 52 41" fill="none" xmlns="http://www.w3.org/2000/svg">
<path d="M23.9998 28.2227C23.9998 23.449 20.8658 20.2227 16.9999 20.2227C13.134 20.2227 10 23.449 10 28.2227" stroke="#1C1C1C" stroke-width="1.19999"/>
<path d="M20.3995 15.2227C20.3995 17.1004 18.8773 18.6227 16.9996 18.6227C15.1218 18.6227 13.5996 17.1004 13.5996 15.2227C13.5996 13.3449 15.1218 11.8227 16.9996 11.8227C18.8773 11.8227 20.3995 13.3449 20.3995 15.2227Z" stroke="#1C1C1C" stroke-width="1.19999"/>
<path d="M42.0001 28.2227C42.0001 23.449 38.8661 20.2227 35.0001 20.2227C31.134 20.2227 28 23.449 28 28.2227" stroke="#1C1C1C" stroke-width="1.2"/>
<path d="M38.4001 15.2227C38.4001 17.1004 36.8778 18.6227 35 18.6227C33.1222 18.6227 31.6 17.1004 31.6 15.2227C31.6 13.3449 33.1222 11.8227 35 11.8227C36.8778 11.8227 38.4001 13.3449 38.4001 15.2227Z" stroke="#1C1C1C" stroke-width="1.2"/>
</svg>
