<svg width="24" height="25" viewBox="0 0 24 25" fill="none" xmlns="http://www.w3.org/2000/svg">
<g id="Star 9">
<path id="Star 26" d="M12.6071 17.8635L12.3035 18.2608L12.6071 17.8635C12.2487 17.5897 11.7513 17.5897 11.3929 17.8635L6.14119 21.8755L8.17311 15.3C8.29684 14.8996 8.15778 14.4646 7.82475 14.2102L2.47815 10.1257L9.03443 10.1257C9.47299 10.1257 9.86037 9.83996 9.98985 9.42095L12 2.91598L14.0101 9.42095C14.1396 9.83996 14.527 10.1257 14.9656 10.1257H21.5219L16.1752 14.2102C15.8422 14.4646 15.7032 14.8996 15.8269 15.3L17.8588 21.8755L12.6071 17.8635Z" fill="url(#paint0_linear_497_9304)" stroke="#1A6165"/>
</g>
<defs>
<linearGradient id="paint0_linear_497_9304" x1="1" y1="12.2227" x2="23" y2="12.2227" gradientUnits="userSpaceOnUse">
<stop stop-color="#1A6165"/>
<stop offset="0.630108" stop-color="#1A6165"/>
<stop offset="0.630208" stop-color="white"/>
</linearGradient>
</defs>
</svg>
