<svg width="24" height="25" viewBox="0 0 24 25" fill="none" xmlns="http://www.w3.org/2000/svg">
<path d="M10.2287 9.49476L12 3.76275L13.7713 9.49476C13.9331 10.0185 14.4174 10.3757 14.9656 10.3757H20.7828L16.0235 14.0115C15.6072 14.3295 15.4334 14.8734 15.588 15.3739L17.389 21.202L12.7588 17.6648C12.3108 17.3226 11.6892 17.3226 11.2412 17.6648L6.61097 21.202L8.41197 15.3739C8.56663 14.8734 8.3928 14.3295 7.97652 14.0115L3.21722 10.3757H9.03443C9.58263 10.3757 10.0669 10.0185 10.2287 9.49476ZM5.98942 21.6768C5.98953 21.6767 5.98964 21.6767 5.98975 21.6766L5.98942 21.6768Z" fill="#1A6165" stroke="#1A6165" stroke-width="1.5"/>
</svg>
