<svg width="1240" height="33" viewBox="0 0 1240 33" fill="none" xmlns="http://www.w3.org/2000/svg">
<rect x="5" y="14.2236" width="1232" height="4" fill="#6A9B9E"/>
<ellipse cx="1224" cy="16.2236" rx="16" ry="16" fill="#6A9B9E"/>
<ellipse cx="620" cy="16.2236" rx="16" ry="16" fill="#6A9B9E"/>
<ellipse cx="16" cy="16.2236" rx="16" ry="16" fill="#1A6165"/>
<path d="M14.6674 23.2236V10.6436L16.3674 12.2836H12.0674V9.22363H18.6274V23.2236H14.6674Z" fill="white"/>
<path d="M614.614 23.2236V20.7436L619.854 15.8436C620.227 15.497 620.5 15.1903 620.674 14.9236C620.86 14.657 620.98 14.417 621.034 14.2036C621.1 13.977 621.134 13.7703 621.134 13.5836C621.134 13.1303 620.98 12.777 620.674 12.5236C620.38 12.2703 619.934 12.1436 619.334 12.1436C618.827 12.1436 618.354 12.257 617.914 12.4836C617.474 12.7103 617.114 13.0503 616.834 13.5036L613.894 11.8636C614.414 10.9836 615.167 10.277 616.154 9.74363C617.14 9.2103 618.32 8.94363 619.694 8.94363C620.774 8.94363 621.72 9.11697 622.534 9.46363C623.347 9.8103 623.98 10.3036 624.434 10.9436C624.9 11.5836 625.134 12.337 625.134 13.2036C625.134 13.657 625.074 14.1103 624.954 14.5636C624.834 15.0036 624.6 15.477 624.254 15.9836C623.92 16.477 623.42 17.0303 622.754 17.6436L618.594 21.4836L617.934 20.0836H625.514V23.2236H614.614Z" fill="white"/>
<path d="M1223.33 23.5036C1222.36 23.5036 1221.39 23.3836 1220.41 23.1436C1219.45 22.9036 1218.61 22.5636 1217.89 22.1236L1219.33 19.1436C1219.89 19.517 1220.51 19.8036 1221.19 20.0036C1221.89 20.2036 1222.56 20.3036 1223.21 20.3036C1223.89 20.3036 1224.43 20.177 1224.83 19.9236C1225.23 19.6703 1225.43 19.3103 1225.43 18.8436C1225.43 18.4303 1225.27 18.1036 1224.93 17.8636C1224.6 17.6103 1224.05 17.4836 1223.29 17.4836H1221.63V14.9836L1225.39 10.9236L1225.77 12.2836H1218.61V9.22363H1228.73V11.7036L1224.97 15.7636L1223.03 14.6636H1224.11C1225.86 14.6636 1227.18 15.057 1228.07 15.8436C1228.98 16.617 1229.43 17.617 1229.43 18.8436C1229.43 19.6436 1229.21 20.397 1228.77 21.1036C1228.35 21.8103 1227.69 22.3903 1226.79 22.8436C1225.9 23.2836 1224.75 23.5036 1223.33 23.5036Z" fill="white"/>
</svg>
