<svg width="40" height="41" viewBox="0 0 40 41" fill="none" xmlns="http://www.w3.org/2000/svg">
<path d="M15.4982 8.26388C18.3372 10.4666 20.1264 14.2205 16.5005 16.7223C11.2977 18.7245 11.758 17.7783 10.5 20.7223C9.25868 23.6275 11.5 25.2223 9 26.7223" stroke="#1C1C1C" stroke-width="1.5"/>
<path d="M24.4112 7.9366C24.2872 11.1823 24.5781 13.0054 26.5984 13.8862C27.8781 14.4441 28.821 15.4342 29.0085 16.8176C29.1736 18.0352 29.89 18.9751 33.0002 19.2213" stroke="#1C1C1C" stroke-width="1.5"/>
<path d="M33.2501 20.2227C33.2501 27.5404 27.3178 33.4727 20.0001 33.4727C12.6823 33.4727 6.75006 27.5404 6.75006 20.2227C6.75006 12.9049 12.6823 6.97266 20.0001 6.97266C27.3178 6.97266 33.2501 12.9049 33.2501 20.2227Z" stroke="#1C1C1C" stroke-width="1.5"/>
<path d="M6.93563 25.7156L7.15973 25.9717H7.50006H12.0001H21.0001H35.5001C37.0188 25.9717 38.2501 27.2029 38.2501 28.7217C38.2501 30.2405 37.0188 31.4717 35.5001 31.4717H30.0001H25.5001H25.2035L24.9871 31.6745L17.3271 38.8558L14.5435 37.8119L17.1709 32.5571L17.7136 31.4717H16.5001H12.0001H7.79568L1.2685 25.3796C1.16509 25.2831 1.16228 25.1201 1.2623 25.0201L3.77457 22.5078C3.87683 22.4056 4.04426 22.4111 4.13949 22.52L6.93563 25.7156Z" fill="white" stroke="#1C1C1C" stroke-width="1.5"/>
<path d="M17.4636 25.9727L14.575 20.1955L16.766 19.5695L22.7689 25.9727H17.4636Z" fill="white" stroke="#1C1C1C" stroke-width="1.5"/>
</svg>
