<svg width="24" height="25" viewBox="0 0 24 25" fill="none" xmlns="http://www.w3.org/2000/svg">
<path d="M3.49976 13.0217C3.49976 12.3037 4.08179 11.7217 4.79976 11.7217H19.1998C19.9177 11.7217 20.4998 12.3037 20.4998 13.0217V16.7217H3.49976V13.0217Z" stroke="#1C1C1C"/>
<line x1="3.49976" y1="16.623" x2="3.49976" y2="19.023" stroke="#1C1C1C"/>
<line x1="20.5999" y1="16.623" x2="20.5999" y2="19.023" stroke="#1C1C1C"/>
<mask id="path-4-inside-1_497_9174" fill="white">
<path d="M4.7998 7.32168C4.7998 6.99031 5.06843 6.72168 5.3998 6.72168H18.5998C18.9312 6.72168 19.1998 6.99031 19.1998 7.32168V12.1217H4.7998V7.32168Z"/>
</mask>
<path d="M4.7998 7.32168C4.7998 6.99031 5.06843 6.72168 5.3998 6.72168H18.5998C18.9312 6.72168 19.1998 6.99031 19.1998 7.32168V12.1217H4.7998V7.32168Z" stroke="#1C1C1C" stroke-width="2" mask="url(#path-4-inside-1_497_9174)"/>
<mask id="path-5-inside-2_497_9174" fill="white">
<path d="M8.3999 10.0223C8.3999 9.35952 8.93716 8.82227 9.5999 8.82227H14.3999C15.0626 8.82227 15.5999 9.35952 15.5999 10.0223V11.8223H8.3999V10.0223Z"/>
</mask>
<path d="M7.3999 10.0223C7.3999 8.80724 8.38488 7.82227 9.5999 7.82227H14.3999C15.6149 7.82227 16.5999 8.80724 16.5999 10.0223H14.5999C14.5999 9.91181 14.5104 9.82227 14.3999 9.82227H9.5999C9.48945 9.82227 9.3999 9.91181 9.3999 10.0223H7.3999ZM16.5999 12.4223H7.3999L9.3999 11.2223H14.5999L16.5999 12.4223ZM7.3999 12.4223V10.0223C7.3999 8.80724 8.38488 7.82227 9.5999 7.82227V9.82227C9.48945 9.82227 9.3999 9.91181 9.3999 10.0223V11.2223L7.3999 12.4223ZM14.3999 7.82227C15.6149 7.82227 16.5999 8.80724 16.5999 10.0223V12.4223L14.5999 11.2223V10.0223C14.5999 9.91181 14.5104 9.82227 14.3999 9.82227V7.82227Z" fill="#1C1C1C" mask="url(#path-5-inside-2_497_9174)"/>
</svg>
